<svg id="Capa_1" data-name="Capa 1" xmlns="http://www.w3.org/2000/svg" viewBox="0 0 93.21 89.07"><defs><style>.cls-1{fill:#fff;}</style></defs><title>Mesa de trabajo 2</title><path id="LinkedIn" class="cls-1" d="M93.21,54.61V89.07h-20V56.92c0-8.08-2.89-13.59-10.12-13.59-5.52,0-8.81,3.71-10.25,7.31a13.67,13.67,0,0,0-.66,4.87V89.07h-20s.27-54.46,0-60.1h20v8.52l-.13.19h.13v-.19c2.65-4.09,7.4-9.93,18-9.93C83.36,27.56,93.21,36.15,93.21,54.61ZM11.31,0C4.47,0,0,4.48,0,10.38S4.34,20.77,11,20.77h.13c7,0,11.3-4.62,11.3-10.39S18.15,0,11.31,0ZM1.19,89.07h20V29h-20Z"/></svg>